# xmcd
#
# Track frame offsets: 
#        150
#        25655
#        59440
#        98596
#        142476
#        175350
#        212361
#        229312
#        261983
#        284652
#
# Disc length: 4282 seconds
#
# Revision: 0
# Processed by: cddbd v1.4PL0 Copyright (c) Steve Scherf et al.
# Submitted via: ExactAudioCopy v0.90b4
#
DISCID=9910b80a
DTITLE=李祥霆 - 唐人诗意
DYEAR=2001
DGENRE=
TTITLE0=春风又绿江南岸
TTITLE1=窗含西岭千秋雪
TTITLE2=卧看云起
TTITLE3=星垂平野阔
TTITLE4=长河落日圆
TTITLE5=天地一沙鸥
TTITLE6=野渡无人
TTITLE7=月是故乡明
TTITLE8=独钓寒江雪
TTITLE9=孤帆远影碧空尽
EXTD=
EXTT0=
EXTT1=
EXTT2=
EXTT3=
EXTT4=
EXTT5=
EXTT6=
EXTT7=
EXTT8=
EXTT9=
PLAYORDER=
